<svg width="129" height="127" viewBox="0 0 129 127" fill="none" xmlns="http://www.w3.org/2000/svg">
<path d="M101.94 66.9232H101.391C101.4 66.7068 101.405 66.4948 101.405 66.2783C101.405 57.0194 93.7543 49.4878 84.3448 49.4878C82.7598 49.4878 81.2023 49.6952 79.6998 50.1146C74.789 41.8795 65.8698 36.8189 56.0752 36.8189C41.5357 36.8189 29.5974 48.0126 28.6991 62.1877C23.628 62.3726 18.8775 64.4111 15.2584 67.974C11.4699 71.7037 9.38108 76.6691 9.38108 81.9497C9.38108 92.8548 18.3918 101.731 29.4734 101.731H101.944C106.658 101.731 111.102 99.9176 114.45 96.6208C117.781 93.333 119.618 88.9674 119.618 84.3272C119.618 74.73 111.689 66.9232 101.94 66.9232Z" fill="#FFA500"/>
<path d="M84.3207 82.325L67.8457 54.2378C67.2695 53.2567 66.2389 52.6693 65.0864 52.6693C63.9338 52.6693 62.9033 53.2567 62.327 54.2378L45.852 82.325C45.2757 83.3062 45.2757 84.481 45.852 85.4622C46.4283 86.4433 47.4588 87.0307 48.6114 87.0307H81.5546C82.7071 87.0307 83.7377 86.4433 84.314 85.4622C84.8902 84.481 84.8902 83.3062 84.314 82.325H84.3207ZM83.1478 84.7947C82.8156 85.3554 82.2258 85.6958 81.5613 85.6958H48.6114C47.947 85.6958 47.3571 85.362 47.0249 84.7947C46.6927 84.234 46.6927 83.5599 47.0249 82.9925L63.4999 54.9053C63.8321 54.3446 64.4219 54.0042 65.0864 54.0042C65.7508 54.0042 66.3406 54.338 66.6728 54.9053L83.1478 82.9925C83.48 83.5532 83.48 84.2273 83.1478 84.7947ZM65.6762 55.8731C65.4321 55.4593 64.7406 55.4593 64.5033 55.8731L48.3809 83.3596C48.2588 83.5665 48.2588 83.8202 48.3809 84.0271C48.5029 84.234 48.7266 84.3608 48.9707 84.3608H81.2088C81.4529 84.3608 81.6766 84.234 81.7986 84.0271C81.9207 83.8202 81.9207 83.5665 81.7986 83.3596L65.6762 55.8731ZM50.1436 83.0259L65.0864 57.5418L80.0291 83.0259H50.1436ZM63.5473 66.8998L59.8523 74.7893C59.7574 74.9962 59.771 75.2365 59.8998 75.4301C60.0218 75.6236 60.2388 75.7371 60.4693 75.7371H64.5575L63.5067 80.3827C63.4321 80.6964 63.6016 81.0168 63.9067 81.1436C63.988 81.177 64.0829 81.197 64.1643 81.197C64.388 81.197 64.605 81.0835 64.7338 80.89L70.2797 72.3931C70.4153 72.1862 70.4221 71.9258 70.3068 71.7122C70.1848 71.4987 69.9611 71.3652 69.7102 71.3652H66.4898L68.4627 67.4738C68.5644 67.2669 68.5576 67.0199 68.4356 66.8264C68.3136 66.6328 68.0966 66.5126 67.8593 66.5126H64.1643C63.8999 66.5126 63.6626 66.6662 63.5473 66.8998ZM66.761 67.8476L64.788 71.7389C64.6863 71.9459 64.6931 72.1928 64.8152 72.3864C64.9372 72.58 65.1542 72.7001 65.3915 72.7001H68.4627L65.6423 77.0186L66.0491 75.2165C66.0966 75.0162 66.0491 74.8093 65.9135 74.6558C65.7847 74.4956 65.5881 74.4088 65.3847 74.4088H61.5134L64.5847 67.8543H66.7542L66.761 67.8476Z" fill="black"/>
</svg>
